:version 1.10
:name ASF
:units
  mass 1
  length 1
  angle deg
:documentation
  ASF file generated by Kaydara
:root
  axis xyz
  order  tx ty tz rx ry rz
  position 0 0 0
  orientation 0 0 0
:bonedata
  begin
    id 1
    name RightUpLegDummy
    direction -0.718183 -0.695806 0.00816078
    length 4.904
    axis 0 0 0 xyz
  end
  begin
    id 2
    name RightUpLeg
    direction 3.53373e-006 -0.995788 0.0916898
    length 17.4976
    axis -3.49089 -0.000906625 0.000286804 xyz
    dof rx ry rz
  end
  begin
    id 3
    name RightLeg
    direction 0.00371092 -0.995096 -0.0988419
    length 16.5821
    axis 3.68512 0.0193738 -0.131023 xyz
    dof rx ry rz
  end
  begin
    id 4
    name RightFoot
    direction 0.00079151 -0.46099 0.887405
    length 3.77069
    axis 4.81691e-005 -0.120479 -0.188788 xyz
    dof rx ry rz
  end
  begin
    id 5
    name RightToes
    direction 0 0 0
    length 0
    axis 0 0 0 xyz
    dof rx ry rz
  end
  begin
    id 6
    name SpineDummy
    direction 8.3039e-015 1 4.57515e-016
    length 4.6813
    axis 0 0 0 xyz
  end
  begin
    id 7
    name Spine
    direction -3.15643e-008 0.999988 0.00495137
    length 10.1015
    axis -0.001389 0.000121418 2.40972e-006 xyz
    dof rx ry rz
  end
  begin
    id 8
    name Spine1
    direction 0 0 0
    length 0
    axis -0.001389 0.000121451 1.30017e-006 xyz
    dof rx ry rz
  end
  begin
    id 9
    name HEadDummy
    direction -1.99912e-008 0.999999 0.00127422
    length 3.43865
    axis -0.001389 0.000121451 1.30017e-006 xyz
  end
  begin
    id 10
    name HEad
    direction 0 0 0
    length 0
    axis 0 0 0 xyz
    dof rx ry rz
  end
  begin
    id 11
    name LeftShoulder1Dummy
    direction 0.998891 -0.0402509 -0.0244456
    length 3.5433
    axis -0.001389 0.000121451 1.30017e-006 xyz
  end
  begin
    id 12
    name LeftShoulder1
    direction 0.99951 -0.000327763 0.0313091
    length 4.05031
    axis -0.001389 0.000121451 1.30017e-006 xyz
    dof rx ry rz
  end
  begin
    id 13
    name LeftArm
    direction 0.998561 -0.00100056 -0.0536182
    length 10.3537
    axis -23.1894 0.134784 0.967509 xyz
    dof rx ry rz
  end
  begin
    id 14
    name LeftForeArm
    direction 0.998903 0.00866432 0.046012
    length 8.70632
    axis -9.91835 -0.06569 -0.177794 xyz
    dof rx ry rz
  end
  begin
    id 15
    name LeftHand
    direction 0 0 0
    length 0
    axis 0 0 0 xyz
    dof rx ry rz
  end
  begin
    id 16
    name RightShoulderDummy
    direction -0.998891 -0.0402509 -0.0244414
    length 3.5433
    axis -0.001389 0.000121451 1.30017e-006 xyz
  end
  begin
    id 17
    name RightShoulder
    direction -0.99951 -0.000327807 0.0313133
    length 4.05031
    axis 0.215806 0.000203643 -0.0068026 xyz
    dof rx ry rz
  end
  begin
    id 18
    name RightArm
    direction -0.998573 -0.000999564 -0.053403
    length 10.3947
    axis -23.2009 -0.134239 -0.964101 xyz
    dof rx ry rz
  end
  begin
    id 19
    name RightForeArm
    direction -0.998898 0.00868028 0.0461306
    length 8.68355
    axis -9.92322 0.0658061 0.178868 xyz
    dof rx ry rz
  end
  begin
    id 20
    name RightHand
    direction 0 0 0
    length 0
    axis 0 0 0 xyz
    dof rx ry rz
  end
  begin
    id 21
    name LeftUpLegDummy
    direction 0.718183 -0.695806 0.00816078
    length 4.904
    axis 0 0 0 xyz
  end
  begin
    id 22
    name LeftUpLeg
    direction -6.81752e-006 -0.995793 0.0916337
    length 17.4976
    axis -3.48766 0.00143442 -0.000524262 xyz
    dof rx ry rz
  end
  begin
    id 23
    name LeftLeg
    direction -0.00601358 -0.995091 -0.0987824
    length 16.5821
    axis 3.68178 -0.00654042 -0.000285133 xyz
    dof rx ry rz
  end
  begin
    id 24
    name LeftFoot
    direction -0.00417578 -0.460984 0.887399
    length 3.77069
    axis 1.87233e-006 4.66016e-005 -8.6538e-006 xyz
    dof rx ry rz
  end
  begin
    id 25
    name LeftToes
    direction 0 0 0
    length 0
    axis 0 0 0 xyz
    dof rx ry rz
  end
:hierarchy
  begin
    root RightUpLegDummy SpineDummy LeftUpLegDummy
    RightUpLegDummy RightUpLeg
    RightUpLeg RightLeg
    RightLeg RightFoot
    RightFoot RightToes
    SpineDummy Spine
    Spine Spine1
    Spine1 HEadDummy LeftShoulder1Dummy RightShoulderDummy
    HEadDummy HEad
    LeftShoulder1Dummy LeftShoulder1
    LeftShoulder1 LeftArm
    LeftArm LeftForeArm
    LeftForeArm LeftHand
    RightShoulderDummy RightShoulder
    RightShoulder RightArm
    RightArm RightForeArm
    RightForeArm RightHand
    LeftUpLegDummy LeftUpLeg
    LeftUpLeg LeftLeg
    LeftLeg LeftFoot
    LeftFoot LeftToes
  end

:SAMPLES-PER-SECOND 30
:FULLY-SPECIFIED
:DEGREES
32
root  71.9212 40.0199 0.270675 -167.871 -85.0581 165.453
RightUpLeg  -2.22046 -10.8878 -7.59062
RightLeg  14.226 3.03628 1.25445
RightFoot  -7.37208 -0.175849 3.64146
RightToes  0.000481921 0.542163 -0.142578
Spine  1.31273 0.185301 -2.84194
Spine1  14.4805 -0.318434 1.39078
HEad  26.4186 6.18649 -6.39096
LeftShoulder1  7.25074 -10.7303 -44.3508
LeftArm  -18.5206 15.9818 -16.8104
LeftForeArm  30.8335 -21.963 -3.16079
LeftHand  -0.25398 0.0180481 5.50724
RightShoulder  4.11693 7.25988 32.3065
RightArm  -16.6711 -9.36852 32.5108
RightForeArm  6.17851 18.5821 4.44564
RightHand  -1.37999 5.69362 -14.7673
LeftUpLeg  1.01375 5.83432 -0.565642
LeftLeg  9.218 14.0029 -2.67965
LeftFoot  -8.74256 0.0197882 1.44341
LeftToes  1.06246e-005 4.65868e-005 -8.65513e-006
33
root  71.9378 39.8938 0.327535 -168.341 -83.4507 165.824
RightUpLeg  -5.19772 -9.58844 -7.49133
RightLeg  19.1123 2.20615 0.56802
RightFoot  -7.48738 -0.20691 4.60833
RightToes  0.000481921 0.542163 -0.142578
Spine  2.07074 0.509304 -3.34266
Spine1  14.5143 0.149742 0.715042
HEad  26.3036 7.33584 -7.32155
LeftShoulder1  7.8493 -11.2712 -46.3316
LeftArm  -16.8694 15.1943 -18.5604
LeftForeArm  31.2567 -19.2636 -2.90586
LeftHand  -0.25398 0.0180481 5.50724
RightShoulder  4.37766 7.74043 32.9884
RightArm  -16.905 -9.98059 37.3932
RightForeArm  7.14523 17.7564 4.45709
RightHand  -1.13517 4.70262 -13.3675
LeftUpLeg  0.66863 6.3981 -0.826361
LeftLeg  10.4288 14.9699 -2.55247
LeftFoot  -9.68645 0.0399274 1.26538
LeftToes  1.06246e-005 4.65868e-005 -8.65513e-006
34
root  71.9165 39.786 0.371598 -168.675 -81.8162 166.179
RightUpLeg  -8.61667 -8.00894 -7.55607
RightLeg  24.4595 0.152498 -0.144804
RightFoot  -6.31431 -0.313923 6.12859
RightToes  0.000481921 0.542163 -0.142578
Spine  2.69643 0.726035 -3.44052
Spine1  14.3268 0.665145 -0.400877
HEad  26.1587 8.70957 -8.23175
LeftShoulder1  8.44726 -11.8463 -48.0298
LeftArm  -15.7203 14.4767 -19.6658
LeftForeArm  30.58 -16.3515 -3.00682
LeftHand  -0.25398 0.0180481 5.50724
RightShoulder  4.71776 8.35303 33.841
RightArm  -16.1428 -10.9591 41.2533
RightForeArm  5.79397 17.3388 4.67288
RightHand  -1.00147 4.19954 -12.424
LeftUpLeg  0.341155 6.77669 -1.14455
LeftLeg  11.4164 16.1238 -2.31959
LeftFoot  -10.4998 0.0551034 1.09296
LeftToes  1.06246e-005 4.65868e-005 -8.65513e-006
35
root  71.8194 39.725 0.411908 -169.95 -80.6034 167.385
RightUpLeg  -11.6192 -7.72227 -7.43469
RightLeg  29.0136 -1.29314 -1.00005
RightFoot  -4.28921 -0.470706 7.1745
RightToes  0.000481921 0.542163 -0.142578
Spine  3.2467 0.761627 -3.23168
Spine1  14.2499 0.969555 -1.40675
HEad  25.8104 10.1481 -9.25224
LeftShoulder1  9.00559 -12.3959 -49.4462
LeftArm  -14.7239 13.7382 -20.3641
LeftForeArm  29.2637 -13.6584 -3.4051
LeftHand  -0.25398 0.0180481 5.50724
RightShoulder  5.01433 8.81071 34.7638
RightArm  -12.6033 -11.7842 43.4624
RightForeArm  3.07791 17.3536 5.13616
RightHand  -0.935963 4.35626 -11.4629
LeftUpLeg  0.398118 6.9112 -1.25182
LeftLeg  11.9908 17.1414 -2.11557
LeftFoot  -11.0693 0.0642582 0.94675
LeftToes  1.06246e-005 4.65868e-005 -8.65513e-006
36
root  71.6513 39.7117 0.449164 -172.256 -79.8238 169.529
RightUpLeg  -13.805 -8.12835 -7.0662
RightLeg  31.6133 -1.87182 -1.47536
RightFoot  -2.78282 -0.567919 7.3307
RightToes  0.000481921 0.542163 -0.142578
Spine  3.75822 0.605549 -2.95125
Spine1  14.385 0.920291 -1.88325
HEad  25.049 11.7648 -10.5636
LeftShoulder1  9.39269 -12.7573 -50.422
LeftArm  -13.7034 12.9571 -21.1451
LeftForeArm  29.004 -11.6022 -3.89008
LeftHand  -0.25398 0.0180481 5.50724
RightShoulder  5.13799 8.97011 35.2261
RightArm  -6.40066 -12.1145 44.2872
RightForeArm  -0.806964 17.8822 5.67539
RightHand  -0.951981 4.50832 -11.4817
LeftUpLeg  0.877467 6.89489 -1.05469
LeftLeg  12.1107 17.9148 -2.04232
LeftFoot  -11.4705 0.069723 0.754543
LeftToes  1.06246e-005 4.65868e-005 -8.65513e-006
37
root  71.4457 39.7235 0.471904 -174.694 -79.1974 171.971
RightUpLeg  -15.4259 -8.73833 -6.55362
RightLeg  31.6722 -1.72966 -1.39032
RightFoot  -2.51475 -0.589403 7.40633
RightToes  0.000481921 0.542163 -0.142578
Spine  4.15752 0.340086 -2.67044
Spine1  14.3638 0.65977 -1.97861
HEad  24.0259 13.4413 -11.9403
LeftShoulder1  9.58741 -12.9549 -50.8437
LeftArm  -12.4136 12.4351 -22.1658
LeftForeArm  30.3805 -10.6263 -4.35604
LeftHand  -0.25398 0.0180481 5.50724
RightShoulder  5.13273 9.01207 35.0484
RightArm  -0.0728505 -12.2156 44.3134
RightForeArm  -5.46606 18.7811 6.00142
RightHand  -1.09461 4.51101 -13.1228
LeftUpLeg  1.38202 6.86592 -0.722859
LeftLeg  11.9294 18.5456 -2.05179
LeftFoot  -11.8025 0.0728928 0.503659
LeftToes  1.06246e-005 4.65868e-005 -8.65513e-006
38
root  71.2155 39.7363 0.464599 -176.424 -78.566 174.024
RightUpLeg  -16.7976 -9.35343 -6.00352
RightLeg  29.3246 -1.40266 -1.08336
RightFoot  -2.69055 -0.620944 7.95094
RightToes  0.000481921 0.542163 -0.142578
Spine  4.40746 0.113504 -2.39316
Spine1  13.8656 0.433975 -1.99105
HEad  23.0761 14.8047 -12.9341
LeftShoulder1  9.77583 -13.2095 -51.0503
LeftArm  -10.6362 12.4056 -22.9287
LeftForeArm  32.3115 -10.9564 -4.80124
LeftHand  -0.25398 0.0180481 5.50724
RightShoulder  5.11289 9.10236 34.6041
RightArm  3.53318 -12.4677 43.8252
RightForeArm  -8.66243 19.4572 6.08793
RightHand  -1.26432 4.89077 -14.5765
LeftUpLeg  1.61602 6.80647 -0.441714
LeftLeg  11.6748 19.1952 -2.04651
LeftFoot  -12.081 0.0742872 0.269524
LeftToes  1.06246e-005 4.65868e-005 -8.65513e-006
39
root  70.9387 39.744 0.423871 -177.564 -77.9981 175.599
RightUpLeg  -17.8512 -10.1729 -5.4408
RightLeg  25.2829 -1.06805 -0.770436
RightFoot  -2.27374 -0.674812 8.30286
RightToes  0.000481921 0.542163 -0.142578
Spine  4.6283 -0.0030324 -2.15929
Spine1  13.072 0.316792 -1.96687
HEad  22.3074 15.6812 -13.4333
LeftShoulder1  10.0595 -13.5753 -51.4019
LeftArm  -8.37487 12.5204 -23.0627
LeftForeArm  33.5526 -12.1574 -5.135
LeftHand  -0.25398 0.0180481 5.50724
RightShoulder  5.07458 9.13174 34.2109
RightArm  3.89269 -12.7276 42.9958
RightForeArm  -8.65746 19.3456 6.14419
RightHand  -1.30969 5.64851 -14.1004
LeftUpLeg  1.79816 6.67049 -0.214049
LeftLeg  11.4165 19.8335 -2.03172
LeftFoot  -12.3238 0.0745242 0.063755
LeftToes  1.06246e-005 4.65868e-005 -8.65513e-006
40
root  70.5956 39.7472 0.354281 -178.406 -77.5951 176.73
RightUpLeg  -18.4301 -11.6303 -4.84859
RightLeg  20.4858 -0.25812 -0.358489
RightFoot  -1.44171 -0.712663 8.102
RightToes  0.000481921 0.542163 -0.142578
Spine  4.92675 -0.0783138 -1.97187
Spine1  12.3413 0.225494 -1.90633
HEad  21.6313 16.2032 -13.6796
LeftShoulder1  10.2743 -13.8427 -51.6862
LeftArm  -6.09365 12.1882 -22.9519
LeftForeArm  34.0634 -13.3407 -5.30888
LeftHand  -0.25398 0.0180481 5.50724
RightShoulder  4.96255 8.96612 33.8493
RightArm  2.16331 -12.5382 42.0972
RightForeArm  -6.80211 18.2014 6.41091
RightHand  -1.26177 6.08317 -13.1123
LeftUpLeg  2.25229 6.52452 -0.00528772
LeftLeg  11.1345 20.2924 -2.04856
LeftFoot  -12.6261 0.0734145 -0.206258
LeftToes  1.06246e-005 4.65868e-005 -8.65513e-006
41
root  70.194 39.7411 0.250085 -178.692 -77.4014 177.219
RightUpLeg  -18.6408 -13.2415 -4.46076
RightLeg  15.6052 0.767737 0.26566
RightFoot  -0.93765 -0.739855 8.04199
RightToes  0.000481921 0.542163 -0.142578
Spine  5.13062 -0.208359 -1.75661
Spine1  11.8022 0.101017 -1.92456
HEad  21.043 16.5201 -13.8359
LeftShoulder1  10.2657 -13.8892 -51.5078
LeftArm  -4.33825 11.2638 -23.1087
LeftForeArm  34.4047 -13.9783 -5.4408
LeftHand  -0.25398 0.0180481 5.50724
RightShoulder  4.84855 8.77949 33.5293
RightArm  -0.880375 -11.8505 41.2146
RightForeArm  -5.45827 16.1095 6.96947
RightHand  -1.3181 5.82978 -13.971
LeftUpLeg  2.889 6.42115 0.125761
LeftLeg  10.844 20.5046 -2.07274
LeftFoot  -13.0062 0.069467 -0.588837
LeftToes  1.06246e-005 4.65868e-005 -8.65513e-006
